<svg width="256" height="256" viewBox="0 0 256 256" fill="none" xmlns="http://www.w3.org/2000/svg">
  <rect width="256" height="256" rx="48" fill="#FFF5E4"/>
  <rect x="12" y="12" width="232" height="232" rx="40" fill="#FFD6E0"/>
  <g transform="translate(40,32) scale(5.5)" shape-rendering="crispEdges">
    <rect x="15" y="6" width="2" height="3" fill="#5C4033"/>
    <rect x="14" y="9" width="2" height="2" fill="#5C4033"/>
    <rect x="12" y="11" width="2" height="2" fill="#5C4033"/>
    <rect x="10" y="13" width="2" height="2" fill="#5C4033"/>
    <rect x="16" y="9" width="2" height="2" fill="#5C4033"/>
    <rect x="18" y="11" width="2" height="2" fill="#5C4033"/>
    <rect x="20" y="13" width="2" height="2" fill="#5C4033"/>
    <rect x="17" y="4" width="4" height="2" fill="#7BB661"/>
    <rect x="19" y="3" width="4" height="2" fill="#8FCB6E"/>
    <rect x="21" y="2" width="3" height="2" fill="#7BB661"/>
    <rect x="6" y="16" width="8" height="2" fill="#D7263D"/>
    <rect x="5" y="18" width="10" height="6" fill="#D7263D"/>
    <rect x="6" y="24" width="8" height="2" fill="#9E1B2C"/>
    <rect x="7" y="18" width="2" height="2" fill="#FF6B81"/>
    <rect x="18" y="16" width="8" height="2" fill="#D7263D"/>
    <rect x="17" y="18" width="10" height="6" fill="#D7263D"/>
    <rect x="18" y="24" width="8" height="2" fill="#9E1B2C"/>
    <rect x="19" y="18" width="2" height="2" fill="#FF6B81"/>
  </g>
</svg>
